<?xml version="1.0" encoding="us-ascii" standalone="no"?><svg xmlns="http://www.w3.org/2000/svg" xmlns:xlink="http://www.w3.org/1999/xlink" contentStyleType="text/css" height="494px" preserveAspectRatio="none" style="width:705px;height:494px;background:#FFFFFF;" version="1.1" viewBox="0 0 705 494" width="705px" zoomAndPan="magnify"><defs/><g><!--cluster abstract_factory_wea--><g id="cluster_abstract_factory_wea"><path d="M8.5,6 L186.5,6 A3.75,3.75 0 0 1 189,8.5 L196,28.2969 L695.5,28.2969 A2.5,2.5 0 0 1 698,30.7969 L698,484.5 A2.5,2.5 0 0 1 695.5,487 L8.5,487 A2.5,2.5 0 0 1 6,484.5 L6,8.5 A2.5,2.5 0 0 1 8.5,6 " fill="none" style="stroke:#000000;stroke-width:1.5;"/><line style="stroke:#000000;stroke-width:1.5;" x1="6" x2="196" y1="28.2969" y2="28.2969"/><text fill="#000000" font-family="sans-serif" font-size="14" font-weight="bold" lengthAdjust="spacing" textLength="177" x="10" y="20.9951">abstract_factory_wea</text></g><!--cluster abstract_factory.dart--><g id="cluster_abstract_factory.dart"><path d="M32.5,49 L211.5,49 A3.75,3.75 0 0 1 214,51.5 L221,71.2969 L671.5,71.2969 A2.5,2.5 0 0 1 674,73.7969 L674,460.5 A2.5,2.5 0 0 1 671.5,463 L32.5,463 A2.5,2.5 0 0 1 30,460.5 L30,51.5 A2.5,2.5 0 0 1 32.5,49 " fill="none" style="stroke:#000000;stroke-width:1.5;"/><line style="stroke:#000000;stroke-width:1.5;" x1="30" x2="221" y1="71.2969" y2="71.2969"/><text fill="#000000" font-family="sans-serif" font-size="14" font-weight="bold" lengthAdjust="spacing" textLength="178" x="34" y="63.9951">abstract_factory.dart</text></g><!--class Button--><g id="elem_Button"><rect codeLine="3" fill="#F1F1F1" height="64.2969" id="Button" rx="2.5" ry="2.5" style="stroke:#181818;stroke-width:0.5;" width="142" x="516" y="92.5"/><ellipse cx="559.35" cy="108.5" fill="#A9DCDF" rx="11" ry="11" style="stroke:#181818;stroke-width:1.0;"/><path d="M561.4281,110.3125 L561.8188,111.2969 L561.4281,111.2969 C560.975,111.2969 560.8656,111.3125 560.7094,111.4219 C560.4594,111.5781 560.3031,111.8594 560.3031,112.1563 C560.3031,112.4219 560.4438,112.6719 560.6625,112.8281 C560.8031,112.9531 561.0063,113 561.4281,113 L563.7875,113 C564.1469,113 564.3656,112.9688 564.5063,112.875 C564.7563,112.7344 564.9125,112.4375 564.9125,112.1563 C564.9125,111.875 564.7719,111.625 564.5531,111.4688 C564.3813,111.3281 564.225,111.2969 563.7563,111.2969 L560.3656,103.0938 L556.6938,103.0938 C556.2406,103.0938 556.1156,103.1094 555.9594,103.2031 C555.7094,103.375 555.5531,103.6563 555.5531,103.9375 C555.5531,104.2188 555.6938,104.4688 555.9125,104.6406 C556.0844,104.75 556.2563,104.7813 556.6938,104.7813 L557.7719,104.7813 L555.1313,111.2969 C554.7094,111.2969 554.5531,111.3125 554.3969,111.4219 C554.1469,111.5781 553.9906,111.8594 553.9906,112.1563 C553.9906,112.7188 554.3656,113 555.1156,113 L557.3813,113 C557.7406,113 557.9594,112.9688 558.0844,112.875 C558.35,112.7344 558.4906,112.4375 558.4906,112.1563 C558.4906,111.875 558.3656,111.625 558.1469,111.4531 C557.975,111.3281 557.8344,111.2969 557.3813,111.2969 L556.9906,111.2969 L557.3813,110.3125 L561.4281,110.3125 Z M560.725,108.6094 L558.0531,108.6094 L559.3969,105.3438 L560.725,108.6094 Z " fill="#000000"/><text fill="#000000" font-family="sans-serif" font-size="14" font-style="italic" lengthAdjust="spacing" textLength="47" x="579.65" y="113.3467">Button</text><line style="stroke:#181818;stroke-width:0.5;" x1="517" x2="657" y1="124.5" y2="124.5"/><line style="stroke:#181818;stroke-width:0.5;" x1="517" x2="657" y1="132.5" y2="132.5"/><ellipse cx="527" cy="146.1484" fill="#84BE84" rx="3" ry="3" style="stroke:#038048;stroke-width:1.0;"/><text fill="#000000" font-family="sans-serif" font-size="14" lengthAdjust="spacing" textLength="116" x="536" y="149.4951">String getText()</text></g><!--class Label--><g id="elem_Label"><rect codeLine="7" fill="#F1F1F1" height="64.2969" id="Label" rx="2.5" ry="2.5" style="stroke:#181818;stroke-width:0.5;" width="142" x="339" y="92.5"/><ellipse cx="386.25" cy="108.5" fill="#A9DCDF" rx="11" ry="11" style="stroke:#181818;stroke-width:1.0;"/><path d="M388.3281,110.3125 L388.7188,111.2969 L388.3281,111.2969 C387.875,111.2969 387.7656,111.3125 387.6094,111.4219 C387.3594,111.5781 387.2031,111.8594 387.2031,112.1563 C387.2031,112.4219 387.3438,112.6719 387.5625,112.8281 C387.7031,112.9531 387.9063,113 388.3281,113 L390.6875,113 C391.0469,113 391.2656,112.9688 391.4063,112.875 C391.6563,112.7344 391.8125,112.4375 391.8125,112.1563 C391.8125,111.875 391.6719,111.625 391.4531,111.4688 C391.2813,111.3281 391.125,111.2969 390.6563,111.2969 L387.2656,103.0938 L383.5938,103.0938 C383.1406,103.0938 383.0156,103.1094 382.8594,103.2031 C382.6094,103.375 382.4531,103.6563 382.4531,103.9375 C382.4531,104.2188 382.5938,104.4688 382.8125,104.6406 C382.9844,104.75 383.1563,104.7813 383.5938,104.7813 L384.6719,104.7813 L382.0313,111.2969 C381.6094,111.2969 381.4531,111.3125 381.2969,111.4219 C381.0469,111.5781 380.8906,111.8594 380.8906,112.1563 C380.8906,112.7188 381.2656,113 382.0156,113 L384.2813,113 C384.6406,113 384.8594,112.9688 384.9844,112.875 C385.25,112.7344 385.3906,112.4375 385.3906,112.1563 C385.3906,111.875 385.2656,111.625 385.0469,111.4531 C384.875,111.3281 384.7344,111.2969 384.2813,111.2969 L383.8906,111.2969 L384.2813,110.3125 L388.3281,110.3125 Z M387.625,108.6094 L384.9531,108.6094 L386.2969,105.3438 L387.625,108.6094 Z " fill="#000000"/><text fill="#000000" font-family="sans-serif" font-size="14" font-style="italic" lengthAdjust="spacing" textLength="39" x="406.75" y="113.3467">Label</text><line style="stroke:#181818;stroke-width:0.5;" x1="340" x2="480" y1="124.5" y2="124.5"/><line style="stroke:#181818;stroke-width:0.5;" x1="340" x2="480" y1="132.5" y2="132.5"/><ellipse cx="350" cy="146.1484" fill="#84BE84" rx="3" ry="3" style="stroke:#038048;stroke-width:1.0;"/><text fill="#000000" font-family="sans-serif" font-size="14" lengthAdjust="spacing" textLength="116" x="359" y="149.4951">String getText()</text></g><!--class UkrainianButton--><g id="elem_UkrainianButton"><rect codeLine="11" fill="#F1F1F1" height="64.2969" id="UkrainianButton" rx="2.5" ry="2.5" style="stroke:#181818;stroke-width:0.5;" width="148" x="510" y="233.5"/><ellipse cx="525" cy="249.5" fill="#ADD1B2" rx="11" ry="11" style="stroke:#181818;stroke-width:1.0;"/><path d="M527.3438,245.1719 C526.4063,244.7344 525.8125,244.5938 524.9375,244.5938 C522.3125,244.5938 520.3125,246.6719 520.3125,249.3906 L520.3125,250.5156 C520.3125,253.0938 522.4219,254.9844 525.3125,254.9844 C526.5313,254.9844 527.6875,254.6875 528.4375,254.1406 C529.0156,253.7344 529.3438,253.2813 529.3438,252.8906 C529.3438,252.4375 528.9531,252.0469 528.4844,252.0469 C528.2656,252.0469 528.0625,252.125 527.875,252.3125 C527.4219,252.7969 527.4219,252.7969 527.2344,252.8906 C526.8125,253.1563 526.125,253.2813 525.3594,253.2813 C523.3125,253.2813 522.0156,252.1875 522.0156,250.4844 L522.0156,249.3906 C522.0156,247.6094 523.2656,246.2969 525,246.2969 C525.5781,246.2969 526.1875,246.4531 526.6563,246.7031 C527.1406,246.9844 527.3125,247.2031 527.4063,247.6094 C527.4688,248.0156 527.5,248.1406 527.6406,248.2656 C527.7813,248.4063 528.0156,248.5156 528.2344,248.5156 C528.5,248.5156 528.7656,248.375 528.9375,248.1563 C529.0469,248 529.0781,247.8125 529.0781,247.3906 L529.0781,245.9688 C529.0781,245.5313 529.0625,245.4063 528.9688,245.25 C528.8125,244.9844 528.5313,244.8438 528.2344,244.8438 C527.9375,244.8438 527.7344,244.9375 527.5156,245.25 L527.3438,245.1719 Z " fill="#000000"/><text fill="#000000" font-family="sans-serif" font-size="14" lengthAdjust="spacing" textLength="116" x="539" y="254.3467">UkrainianButton</text><line style="stroke:#181818;stroke-width:0.5;" x1="511" x2="657" y1="265.5" y2="265.5"/><line style="stroke:#181818;stroke-width:0.5;" x1="511" x2="657" y1="273.5" y2="273.5"/><ellipse cx="521" cy="287.1484" fill="#84BE84" rx="3" ry="3" style="stroke:#038048;stroke-width:1.0;"/><text fill="#000000" font-family="sans-serif" font-size="14" lengthAdjust="spacing" textLength="116" x="530" y="290.4951">String getText()</text></g><!--class UkrainianLabel--><g id="elem_UkrainianLabel"><rect codeLine="17" fill="#F1F1F1" height="64.2969" id="UkrainianLabel" rx="2.5" ry="2.5" style="stroke:#181818;stroke-width:0.5;" width="142" x="333" y="233.5"/><ellipse cx="350.25" cy="249.5" fill="#ADD1B2" rx="11" ry="11" style="stroke:#181818;stroke-width:1.0;"/><path d="M352.5938,245.1719 C351.6563,244.7344 351.0625,244.5938 350.1875,244.5938 C347.5625,244.5938 345.5625,246.6719 345.5625,249.3906 L345.5625,250.5156 C345.5625,253.0938 347.6719,254.9844 350.5625,254.9844 C351.7813,254.9844 352.9375,254.6875 353.6875,254.1406 C354.2656,253.7344 354.5938,253.2813 354.5938,252.8906 C354.5938,252.4375 354.2031,252.0469 353.7344,252.0469 C353.5156,252.0469 353.3125,252.125 353.125,252.3125 C352.6719,252.7969 352.6719,252.7969 352.4844,252.8906 C352.0625,253.1563 351.375,253.2813 350.6094,253.2813 C348.5625,253.2813 347.2656,252.1875 347.2656,250.4844 L347.2656,249.3906 C347.2656,247.6094 348.5156,246.2969 350.25,246.2969 C350.8281,246.2969 351.4375,246.4531 351.9063,246.7031 C352.3906,246.9844 352.5625,247.2031 352.6563,247.6094 C352.7188,248.0156 352.75,248.1406 352.8906,248.2656 C353.0313,248.4063 353.2656,248.5156 353.4844,248.5156 C353.75,248.5156 354.0156,248.375 354.1875,248.1563 C354.2969,248 354.3281,247.8125 354.3281,247.3906 L354.3281,245.9688 C354.3281,245.5313 354.3125,245.4063 354.2188,245.25 C354.0625,244.9844 353.7813,244.8438 353.4844,244.8438 C353.1875,244.8438 352.9844,244.9375 352.7656,245.25 L352.5938,245.1719 Z " fill="#000000"/><text fill="#000000" font-family="sans-serif" font-size="14" lengthAdjust="spacing" textLength="105" x="364.75" y="254.3467">UkrainianLabel</text><line style="stroke:#181818;stroke-width:0.5;" x1="334" x2="474" y1="265.5" y2="265.5"/><line style="stroke:#181818;stroke-width:0.5;" x1="334" x2="474" y1="273.5" y2="273.5"/><ellipse cx="344" cy="287.1484" fill="#84BE84" rx="3" ry="3" style="stroke:#038048;stroke-width:1.0;"/><text fill="#000000" font-family="sans-serif" font-size="14" lengthAdjust="spacing" textLength="116" x="353" y="290.4951">String getText()</text></g><!--class WeatherWidgetFactory--><g id="elem_WeatherWidgetFactory"><rect codeLine="23" fill="#F1F1F1" height="80.5938" id="WeatherWidgetFactory" rx="2.5" ry="2.5" style="stroke:#181818;stroke-width:0.5;" width="196" x="79" y="225"/><ellipse cx="94" cy="241" fill="#A9DCDF" rx="11" ry="11" style="stroke:#181818;stroke-width:1.0;"/><path d="M96.0781,242.8125 L96.4688,243.7969 L96.0781,243.7969 C95.625,243.7969 95.5156,243.8125 95.3594,243.9219 C95.1094,244.0781 94.9531,244.3594 94.9531,244.6563 C94.9531,244.9219 95.0938,245.1719 95.3125,245.3281 C95.4531,245.4531 95.6563,245.5 96.0781,245.5 L98.4375,245.5 C98.7969,245.5 99.0156,245.4688 99.1563,245.375 C99.4063,245.2344 99.5625,244.9375 99.5625,244.6563 C99.5625,244.375 99.4219,244.125 99.2031,243.9688 C99.0313,243.8281 98.875,243.7969 98.4063,243.7969 L95.0156,235.5938 L91.3438,235.5938 C90.8906,235.5938 90.7656,235.6094 90.6094,235.7031 C90.3594,235.875 90.2031,236.1563 90.2031,236.4375 C90.2031,236.7188 90.3438,236.9688 90.5625,237.1406 C90.7344,237.25 90.9063,237.2813 91.3438,237.2813 L92.4219,237.2813 L89.7813,243.7969 C89.3594,243.7969 89.2031,243.8125 89.0469,243.9219 C88.7969,244.0781 88.6406,244.3594 88.6406,244.6563 C88.6406,245.2188 89.0156,245.5 89.7656,245.5 L92.0313,245.5 C92.3906,245.5 92.6094,245.4688 92.7344,245.375 C93,245.2344 93.1406,244.9375 93.1406,244.6563 C93.1406,244.375 93.0156,244.125 92.7969,243.9531 C92.625,243.8281 92.4844,243.7969 92.0313,243.7969 L91.6406,243.7969 L92.0313,242.8125 L96.0781,242.8125 Z M95.375,241.1094 L92.7031,241.1094 L94.0469,237.8438 L95.375,241.1094 Z " fill="#000000"/><text fill="#000000" font-family="sans-serif" font-size="14" font-style="italic" lengthAdjust="spacing" textLength="164" x="108" y="245.8467">WeatherWidgetFactory</text><line style="stroke:#181818;stroke-width:0.5;" x1="80" x2="274" y1="257" y2="257"/><line style="stroke:#181818;stroke-width:0.5;" x1="80" x2="274" y1="265" y2="265"/><ellipse cx="90" cy="278.6484" fill="#84BE84" rx="3" ry="3" style="stroke:#038048;stroke-width:1.0;"/><text fill="#000000" font-family="sans-serif" font-size="14" lengthAdjust="spacing" textLength="161" x="99" y="281.9951">Button createButton()</text><ellipse cx="90" cy="294.9453" fill="#84BE84" rx="3" ry="3" style="stroke:#038048;stroke-width:1.0;"/><text fill="#000000" font-family="sans-serif" font-size="14" lengthAdjust="spacing" textLength="139" x="99" y="298.292">Label createLabel()</text></g><!--class UkrainianWeatherWidgetFactory--><g id="elem_UkrainianWeatherWidgetFactory"><rect codeLine="28" fill="#F1F1F1" height="80.5938" id="UkrainianWeatherWidgetFactory" rx="2.5" ry="2.5" style="stroke:#181818;stroke-width:0.5;" width="266" x="46" y="366"/><ellipse cx="61" cy="382" fill="#ADD1B2" rx="11" ry="11" style="stroke:#181818;stroke-width:1.0;"/><path d="M63.3438,377.6719 C62.4063,377.2344 61.8125,377.0938 60.9375,377.0938 C58.3125,377.0938 56.3125,379.1719 56.3125,381.8906 L56.3125,383.0156 C56.3125,385.5938 58.4219,387.4844 61.3125,387.4844 C62.5313,387.4844 63.6875,387.1875 64.4375,386.6406 C65.0156,386.2344 65.3438,385.7813 65.3438,385.3906 C65.3438,384.9375 64.9531,384.5469 64.4844,384.5469 C64.2656,384.5469 64.0625,384.625 63.875,384.8125 C63.4219,385.2969 63.4219,385.2969 63.2344,385.3906 C62.8125,385.6563 62.125,385.7813 61.3594,385.7813 C59.3125,385.7813 58.0156,384.6875 58.0156,382.9844 L58.0156,381.8906 C58.0156,380.1094 59.2656,378.7969 61,378.7969 C61.5781,378.7969 62.1875,378.9531 62.6563,379.2031 C63.1406,379.4844 63.3125,379.7031 63.4063,380.1094 C63.4688,380.5156 63.5,380.6406 63.6406,380.7656 C63.7813,380.9063 64.0156,381.0156 64.2344,381.0156 C64.5,381.0156 64.7656,380.875 64.9375,380.6563 C65.0469,380.5 65.0781,380.3125 65.0781,379.8906 L65.0781,378.4688 C65.0781,378.0313 65.0625,377.9063 64.9688,377.75 C64.8125,377.4844 64.5313,377.3438 64.2344,377.3438 C63.9375,377.3438 63.7344,377.4375 63.5156,377.75 L63.3438,377.6719 Z " fill="#000000"/><text fill="#000000" font-family="sans-serif" font-size="14" lengthAdjust="spacing" textLength="234" x="75" y="386.8467">UkrainianWeatherWidgetFactory</text><line style="stroke:#181818;stroke-width:0.5;" x1="47" x2="311" y1="398" y2="398"/><line style="stroke:#181818;stroke-width:0.5;" x1="47" x2="311" y1="406" y2="406"/><ellipse cx="57" cy="419.6484" fill="#84BE84" rx="3" ry="3" style="stroke:#038048;stroke-width:1.0;"/><text fill="#000000" font-family="sans-serif" font-size="14" lengthAdjust="spacing" textLength="161" x="66" y="422.9951">Button createButton()</text><ellipse cx="57" cy="435.9453" fill="#84BE84" rx="3" ry="3" style="stroke:#038048;stroke-width:1.0;"/><text fill="#000000" font-family="sans-serif" font-size="14" lengthAdjust="spacing" textLength="139" x="66" y="439.292">Label createLabel()</text></g><!--class WeatherApp--><g id="elem_WeatherApp"><rect codeLine="35" fill="#F1F1F1" height="80.5938" id="WeatherApp" rx="2.5" ry="2.5" style="stroke:#181818;stroke-width:0.5;" width="257" x="46.5" y="84"/><ellipse cx="124.75" cy="100" fill="#ADD1B2" rx="11" ry="11" style="stroke:#181818;stroke-width:1.0;"/><path d="M127.0938,95.6719 C126.1563,95.2344 125.5625,95.0938 124.6875,95.0938 C122.0625,95.0938 120.0625,97.1719 120.0625,99.8906 L120.0625,101.0156 C120.0625,103.5938 122.1719,105.4844 125.0625,105.4844 C126.2813,105.4844 127.4375,105.1875 128.1875,104.6406 C128.7656,104.2344 129.0938,103.7813 129.0938,103.3906 C129.0938,102.9375 128.7031,102.5469 128.2344,102.5469 C128.0156,102.5469 127.8125,102.625 127.625,102.8125 C127.1719,103.2969 127.1719,103.2969 126.9844,103.3906 C126.5625,103.6563 125.875,103.7813 125.1094,103.7813 C123.0625,103.7813 121.7656,102.6875 121.7656,100.9844 L121.7656,99.8906 C121.7656,98.1094 123.0156,96.7969 124.75,96.7969 C125.3281,96.7969 125.9375,96.9531 126.4063,97.2031 C126.8906,97.4844 127.0625,97.7031 127.1563,98.1094 C127.2188,98.5156 127.25,98.6406 127.3906,98.7656 C127.5313,98.9063 127.7656,99.0156 127.9844,99.0156 C128.25,99.0156 128.5156,98.875 128.6875,98.6563 C128.7969,98.5 128.8281,98.3125 128.8281,97.8906 L128.8281,96.4688 C128.8281,96.0313 128.8125,95.9063 128.7188,95.75 C128.5625,95.4844 128.2813,95.3438 127.9844,95.3438 C127.6875,95.3438 127.4844,95.4375 127.2656,95.75 L127.0938,95.6719 Z " fill="#000000"/><text fill="#000000" font-family="sans-serif" font-size="14" lengthAdjust="spacing" textLength="92" x="145.25" y="104.8467">WeatherApp</text><line style="stroke:#181818;stroke-width:0.5;" x1="47.5" x2="302.5" y1="116" y2="116"/><rect fill="none" height="6" style="stroke:#C82930;stroke-width:1.0;" width="6" x="54.5" y="126.6484"/><text fill="#000000" font-family="sans-serif" font-size="14" lengthAdjust="spacing" textLength="231" x="66.5" y="132.9951">WeatherWidgetFactory _factory</text><line style="stroke:#181818;stroke-width:0.5;" x1="47.5" x2="302.5" y1="140.2969" y2="140.2969"/><ellipse cx="57.5" cy="153.9453" fill="#84BE84" rx="3" ry="3" style="stroke:#038048;stroke-width:1.0;"/><text fill="#000000" font-family="sans-serif" font-size="14" lengthAdjust="spacing" textLength="156" x="66.5" y="157.292">void displayWeather()</text></g><!--reverse link Button to UkrainianButton--><g id="link_Button_UkrainianButton"><path codeLine="15" d="M585.89,176.952 C585.48,195.911 585.03,216.795 584.671,233.41 " fill="none" id="Button-backto-UkrainianButton" style="stroke:#181818;stroke-width:1.0;"/><polygon fill="none" points="578.897,176.539,586.327,156.694,592.893,176.841,578.897,176.539" style="stroke:#181818;stroke-width:1.0;"/></g><!--reverse link Label to UkrainianLabel--><g id="link_Label_UkrainianLabel"><path codeLine="21" d="M407.779,176.952 C406.961,195.911 406.059,216.795 405.342,233.41 " fill="none" id="Label-backto-UkrainianLabel" style="stroke:#181818;stroke-width:1.0;"/><polygon fill="none" points="400.797,176.374,408.653,156.694,414.784,176.978,400.797,176.374" style="stroke:#181818;stroke-width:1.0;"/></g><!--reverse link WeatherWidgetFactory to UkrainianWeatherWidgetFactory--><g id="link_WeatherWidgetFactory_UkrainianWeatherWidgetFactory"><path codeLine="33" d="M177.863,326.48 C178.054,339.729 178.251,353.448 178.427,365.662 " fill="none" id="WeatherWidgetFactory-backto-UkrainianWeatherWidgetFactory" style="stroke:#181818;stroke-width:1.0;"/><polygon fill="none" points="170.862,326.43,177.573,306.332,184.86,326.229,170.862,326.43" style="stroke:#181818;stroke-width:1.0;"/></g><!--reverse link WeatherApp to WeatherWidgetFactory--><g id="link_WeatherApp_WeatherWidgetFactory"><path codeLine="40" d="M175.762,178.439 C175.982,193.781 176.22,210.267 176.427,224.662 " fill="none" id="WeatherApp-backto-WeatherWidgetFactory" style="stroke:#181818;stroke-width:1.0;"/><polygon fill="none" points="175.573,165.332,171.6598,171.389,175.7457,177.3308,179.659,171.2738,175.573,165.332" style="stroke:#181818;stroke-width:1.0;"/></g><!--SRC=[hPB1JiCm38RlVGghfqrJUO1ebt7OYTk6Ugoyreo8aaIEOKnixxxGT1TKKT7q4YMsyzl_btWICFXEtc5DEtB8A9P1gIp3WnV6Mg1kqNl8x-Vg9IoMpzM9KAdVqOS6MPHw_12n9eVl362r4zRc24UIFNt9OfbT4zMVy43j7-9JD9_V6BNHQ4P7dqPYVIcAn94IZOrHc_G6ARQYHE9VA0dbbRZKJJ2pZQdUPCG6DOSIYeVWD2Iwndsysy_mRMQSOmu0AUyog3WDJo-rSIwoA8QquNxfXycdrGqqshiMptrn0fMkiVqtYa42Dm00]--></g></svg>